<svg width="1392" height="181" viewBox="0 0 1392 181" fill="none" xmlns="http://www.w3.org/2000/svg">
<path d="M96 140V-9.53674e-06H128.4V140H96ZM2.52724e-05 140V-9.53674e-06H32.4V140H2.52724e-05ZM30 82.6V55.2H98.4V82.6H30ZM223.323 140V119L221.323 114.4V76.8C221.323 70.1333 219.257 64.9333 215.123 61.2C211.123 57.4667 204.923 55.6 196.523 55.6C190.79 55.6 185.123 56.5333 179.523 58.4C174.057 60.1333 169.39 62.5333 165.523 65.6L154.323 43.8C160.19 39.6667 167.257 36.4667 175.523 34.2C183.79 31.9333 192.19 30.8 200.723 30.8C217.123 30.8 229.857 34.6667 238.923 42.4C247.99 50.1333 252.523 62.2 252.523 78.6V140H223.323ZM190.523 141.6C182.123 141.6 174.923 140.2 168.923 137.4C162.923 134.467 158.323 130.533 155.123 125.6C151.923 120.667 150.323 115.133 150.323 109C150.323 102.6 151.857 97 154.923 92.2C158.123 87.4 163.123 83.6667 169.923 81C176.723 78.2 185.59 76.8 196.523 76.8H225.123V95H199.923C192.59 95 187.523 96.2 184.723 98.6C182.057 101 180.723 104 180.723 107.6C180.723 111.6 182.257 114.8 185.323 117.2C188.523 119.467 192.857 120.6 198.323 120.6C203.523 120.6 208.19 119.4 212.323 117C216.457 114.467 219.457 110.8 221.323 106L226.123 120.4C223.857 127.333 219.723 132.6 213.723 136.2C207.723 139.8 199.99 141.6 190.523 141.6ZM278.761 140V32.4H308.561V62.2L302.961 53.2C306.828 46 312.361 40.4667 319.561 36.6C326.761 32.7333 334.961 30.8 344.161 30.8C352.694 30.8 360.294 32.5333 366.961 36C373.761 39.3333 379.094 44.5333 382.961 51.6C386.828 58.5333 388.761 67.4667 388.761 78.4V140H357.561V83.2C357.561 74.5333 355.628 68.1333 351.761 64C348.028 59.8667 342.694 57.8 335.761 57.8C330.828 57.8 326.361 58.8667 322.361 61C318.494 63 315.428 66.1333 313.161 70.4C311.028 74.6667 309.961 80.1333 309.961 86.8V140H278.761ZM437.689 140L398.889 32.4H428.289L460.489 125H446.489L480.089 32.4H506.489L539.089 125H525.089L558.289 32.4H585.889L546.889 140H516.689L488.089 60.6H497.289L467.689 140H437.689ZM646.664 141.6C635.197 141.6 624.997 139.2 616.064 134.4C607.264 129.6 600.264 123.067 595.064 114.8C589.997 106.4 587.464 96.8667 587.464 86.2C587.464 75.4 589.997 65.8667 595.064 57.6C600.264 49.2 607.264 42.6667 616.064 38C624.997 33.2 635.197 30.8 646.664 30.8C657.997 30.8 668.131 33.2 677.064 38C685.997 42.6667 692.997 49.1333 698.064 57.4C703.131 65.6667 705.664 75.2667 705.664 86.2C705.664 96.8667 703.131 106.4 698.064 114.8C692.997 123.067 685.997 129.6 677.064 134.4C668.131 139.2 657.997 141.6 646.664 141.6ZM646.664 116C651.864 116 656.531 114.8 660.664 112.4C664.797 110 668.064 106.6 670.464 102.2C672.864 97.6667 674.064 92.3333 674.064 86.2C674.064 79.9333 672.864 74.6 670.464 70.2C668.064 65.8 664.797 62.4 660.664 60C656.531 57.6 651.864 56.4 646.664 56.4C641.464 56.4 636.797 57.6 632.664 60C628.531 62.4 625.197 65.8 622.664 70.2C620.264 74.6 619.064 79.9333 619.064 86.2C619.064 92.3333 620.264 97.6667 622.664 102.2C625.197 106.6 628.531 110 632.664 112.4C636.797 114.8 641.464 116 646.664 116ZM724.519 140V32.4H754.319V62.2L748.719 53.2C752.585 46 758.119 40.4667 765.319 36.6C772.519 32.7333 780.719 30.8 789.919 30.8C798.452 30.8 806.052 32.5333 812.719 36C819.519 39.3333 824.852 44.5333 828.719 51.6C832.585 58.5333 834.519 67.4667 834.519 78.4V140H803.319V83.2C803.319 74.5333 801.385 68.1333 797.519 64C793.785 59.8667 788.452 57.8 781.519 57.8C776.585 57.8 772.119 58.8667 768.119 61C764.252 63 761.185 66.1333 758.919 70.4C756.785 74.6667 755.719 80.1333 755.719 86.8V140H724.519ZM943.441 142.4C933.974 142.4 925.241 140.667 917.241 137.2C909.374 133.6 902.907 128.533 897.841 122L915.841 100.4C919.707 105.467 923.774 109.333 928.041 112C932.307 114.533 936.907 115.8 941.841 115.8C955.041 115.8 961.641 108.067 961.641 92.6V26H912.441V-9.53674e-06H993.841V90.8C993.841 108.133 989.574 121.067 981.041 129.6C972.507 138.133 959.974 142.4 943.441 142.4ZM1087.64 140V119L1085.64 114.4V76.8C1085.64 70.1333 1083.58 64.9333 1079.44 61.2C1075.44 57.4667 1069.24 55.6 1060.84 55.6C1055.11 55.6 1049.44 56.5333 1043.84 58.4C1038.38 60.1333 1033.71 62.5333 1029.84 65.6L1018.64 43.8C1024.51 39.6667 1031.58 36.4667 1039.84 34.2C1048.11 31.9333 1056.51 30.8 1065.04 30.8C1081.44 30.8 1094.18 34.6667 1103.24 42.4C1112.31 50.1333 1116.84 62.2 1116.84 78.6V140H1087.64ZM1054.84 141.6C1046.44 141.6 1039.24 140.2 1033.24 137.4C1027.24 134.467 1022.64 130.533 1019.44 125.6C1016.24 120.667 1014.64 115.133 1014.64 109C1014.64 102.6 1016.18 97 1019.24 92.2C1022.44 87.4 1027.44 83.6667 1034.24 81C1041.04 78.2 1049.91 76.8 1060.84 76.8H1089.44V95H1064.24C1056.91 95 1051.84 96.2 1049.04 98.6C1046.38 101 1045.04 104 1045.04 107.6C1045.04 111.6 1046.58 114.8 1049.64 117.2C1052.84 119.467 1057.18 120.6 1062.64 120.6C1067.84 120.6 1072.51 119.4 1076.64 117C1080.78 114.467 1083.78 110.8 1085.64 106L1090.44 120.4C1088.18 127.333 1084.04 132.6 1078.04 136.2C1072.04 139.8 1064.31 141.6 1054.84 141.6ZM1143.08 140V32.4H1172.88V62.2L1167.28 53.2C1171.15 46 1176.68 40.4667 1183.88 36.6C1191.08 32.7333 1199.28 30.8 1208.48 30.8C1217.01 30.8 1224.61 32.5333 1231.28 36C1238.08 39.3333 1243.41 44.5333 1247.28 51.6C1251.15 58.5333 1253.08 67.4667 1253.08 78.4V140H1221.88V83.2C1221.88 74.5333 1219.95 68.1333 1216.08 64C1212.35 59.8667 1207.01 57.8 1200.08 57.8C1195.15 57.8 1190.68 58.8667 1186.68 61C1182.81 63 1179.75 66.1333 1177.48 70.4C1175.35 74.6667 1174.28 80.1333 1174.28 86.8V140H1143.08ZM1330.74 180.4C1320.61 180.4 1310.81 179.133 1301.34 176.6C1292.01 174.2 1284.21 170.533 1277.94 165.6L1290.34 143.2C1294.88 146.933 1300.61 149.867 1307.54 152C1314.61 154.267 1321.54 155.4 1328.34 155.4C1339.41 155.4 1347.41 152.933 1352.34 148C1357.41 143.067 1359.94 135.733 1359.94 126V109.8L1361.94 82.8L1361.54 55.6V32.4H1391.14V122C1391.14 142 1385.94 156.733 1375.54 166.2C1365.14 175.667 1350.21 180.4 1330.74 180.4ZM1325.94 134.8C1315.94 134.8 1306.88 132.667 1298.74 128.4C1290.74 124 1284.28 117.933 1279.34 110.2C1274.54 102.333 1272.14 93.2 1272.14 82.8C1272.14 72.2667 1274.54 63.1333 1279.34 55.4C1284.28 47.5333 1290.74 41.4667 1298.74 37.2C1306.88 32.9333 1315.94 30.8 1325.94 30.8C1335.01 30.8 1343.01 32.6667 1349.94 36.4C1356.88 40 1362.28 45.6667 1366.14 53.4C1370.01 61 1371.94 70.8 1371.94 82.8C1371.94 94.6667 1370.01 104.467 1366.14 112.2C1362.28 119.8 1356.88 125.467 1349.94 129.2C1343.01 132.933 1335.01 134.8 1325.94 134.8ZM1332.14 109.2C1337.61 109.2 1342.48 108.133 1346.74 106C1351.01 103.733 1354.34 100.6 1356.74 96.6C1359.14 92.6 1360.34 88 1360.34 82.8C1360.34 77.4667 1359.14 72.8667 1356.74 69C1354.34 65 1351.01 61.9333 1346.74 59.8C1342.48 57.5333 1337.61 56.4 1332.14 56.4C1326.68 56.4 1321.81 57.5333 1317.54 59.8C1313.28 61.9333 1309.88 65 1307.34 69C1304.94 72.8667 1303.74 77.4667 1303.74 82.8C1303.74 88 1304.94 92.6 1307.34 96.6C1309.88 100.6 1313.28 103.733 1317.54 106C1321.81 108.133 1326.68 109.2 1332.14 109.2Z" fill="#15151A"/>
</svg>
